<svg width="170" height="170" viewBox="0 0 170 170" fill="none" xmlns="http://www.w3.org/2000/svg">
<circle cx="85" cy="85" r="85" fill="#EFEFEF"/>
<ellipse cx="85" cy="123.5" rx="47" ry="10.5" fill="#E4E4E4"/>
<path d="M85 39.875C76.4333 39.8851 68.2204 43.2927 62.1628 49.3503C56.1052 55.4079 52.6976 63.6208 52.6875 72.1875C52.6796 79.1878 54.9662 85.9979 59.197 91.575C59.197 91.575 60.0783 92.7353 60.2222 92.9028L85 122.125L109.79 92.8881C109.919 92.7324 110.803 91.575 110.803 91.575L110.806 91.5662C115.034 85.9911 117.319 79.1845 117.313 72.1875C117.302 63.6208 113.895 55.4079 107.837 49.3503C101.78 43.2927 93.5667 39.8851 85 39.875ZM85 83.9375C82.6761 83.9375 80.4043 83.2484 78.4721 81.9573C76.5398 80.6662 75.0338 78.8311 74.1444 76.684C73.2551 74.537 73.0224 72.1745 73.4758 69.8952C73.9292 67.6159 75.0482 65.5223 76.6915 63.879C78.3348 62.2357 80.4284 61.1166 82.7077 60.6633C84.987 60.2099 87.3495 60.4426 89.4965 61.3319C91.6436 62.2212 93.4787 63.7273 94.7698 65.6596C96.0609 67.5918 96.75 69.8636 96.75 72.1875C96.7461 75.3026 95.5069 78.289 93.3042 80.4917C91.1015 82.6944 88.1151 83.9336 85 83.9375Z" fill="black"/>
</svg>
