<svg width="74" height="51" viewBox="0 0 74 51" fill="none" xmlns="http://www.w3.org/2000/svg">
<g filter="url(#filter0_d_114_597)">
<path fill-rule="evenodd" clip-rule="evenodd" d="M29.4645 15.4645C30.4021 14.5268 31.6739 14 33 14H41C42.3261 14 43.5979 14.5268 44.5355 15.4645C45.4732 16.4021 46 17.6739 46 19V21C46 21.5523 45.5523 22 45 22C44.4477 22 44 21.5523 44 21V19C44 18.2044 43.6839 17.4413 43.1213 16.8787C42.5587 16.3161 41.7956 16 41 16H33C32.2044 16 31.4413 16.3161 30.8787 16.8787C30.3161 17.4413 30 18.2044 30 19V21C30 21.5523 29.5523 22 29 22C28.4477 22 28 21.5523 28 21V19C28 17.6739 28.5268 16.4021 29.4645 15.4645Z" fill="#434044"/>
<path fill-rule="evenodd" clip-rule="evenodd" d="M37 4C35.3431 4 34 5.34315 34 7C34 8.65685 35.3431 10 37 10C38.6569 10 40 8.65685 40 7C40 5.34315 38.6569 4 37 4ZM32 7C32 4.23858 34.2386 2 37 2C39.7614 2 42 4.23858 42 7C42 9.76142 39.7614 12 37 12C34.2386 12 32 9.76142 32 7Z" fill="#434044"/>
<path d="M13.072 42L16.84 33.48H17.764L21.544 42H20.38L19.276 39.516H15.304L14.224 42H13.072ZM17.284 34.992L15.748 38.508H18.832L17.284 34.992ZM25.1441 42.12C24.2401 42.12 23.4881 41.82 22.8881 41.22C22.2961 40.62 22.0001 39.88 22.0001 39C22.0001 38.12 22.2961 37.38 22.8881 36.78C23.4881 36.18 24.2401 35.88 25.1441 35.88C25.7521 35.88 26.2961 36.024 26.7761 36.312C27.2641 36.6 27.6441 36.992 27.9161 37.488L27.0161 37.992C26.8401 37.64 26.5881 37.36 26.2601 37.152C25.9401 36.944 25.5681 36.84 25.1441 36.84C24.5281 36.84 24.0241 37.048 23.6321 37.464C23.2401 37.88 23.0441 38.392 23.0441 39C23.0441 39.608 23.2401 40.12 23.6321 40.536C24.0241 40.952 24.5281 41.16 25.1441 41.16C25.5681 41.16 25.9401 41.056 26.2601 40.848C26.5881 40.64 26.8401 40.36 27.0161 40.008L27.9161 40.512C27.6441 41.008 27.2641 41.4 26.7761 41.688C26.2961 41.976 25.7521 42.12 25.1441 42.12ZM31.9293 42.12C31.0253 42.12 30.2733 41.82 29.6733 41.22C29.0813 40.62 28.7853 39.88 28.7853 39C28.7853 38.12 29.0813 37.38 29.6733 36.78C30.2733 36.18 31.0253 35.88 31.9293 35.88C32.5373 35.88 33.0813 36.024 33.5613 36.312C34.0493 36.6 34.4293 36.992 34.7013 37.488L33.8013 37.992C33.6253 37.64 33.3733 37.36 33.0453 37.152C32.7253 36.944 32.3533 36.84 31.9293 36.84C31.3133 36.84 30.8093 37.048 30.4173 37.464C30.0253 37.88 29.8293 38.392 29.8293 39C29.8293 39.608 30.0253 40.12 30.4173 40.536C30.8093 40.952 31.3133 41.16 31.9293 41.16C32.3533 41.16 32.7253 41.056 33.0453 40.848C33.3733 40.64 33.6253 40.36 33.8013 40.008L34.7013 40.512C34.4293 41.008 34.0493 41.4 33.5613 41.688C33.0813 41.976 32.5373 42.12 31.9293 42.12ZM38.7024 42.12C37.7984 42.12 37.0464 41.82 36.4464 41.22C35.8544 40.612 35.5584 39.872 35.5584 39C35.5584 38.128 35.8544 37.392 36.4464 36.792C37.0464 36.184 37.7984 35.88 38.7024 35.88C39.5984 35.88 40.3424 36.184 40.9344 36.792C41.5344 37.392 41.8344 38.128 41.8344 39C41.8344 39.872 41.5344 40.612 40.9344 41.22C40.3424 41.82 39.5984 42.12 38.7024 42.12ZM37.1904 40.536C37.5824 40.952 38.0864 41.16 38.7024 41.16C39.3184 41.16 39.8184 40.952 40.2024 40.536C40.5864 40.12 40.7784 39.608 40.7784 39C40.7784 38.392 40.5864 37.88 40.2024 37.464C39.8184 37.048 39.3184 36.84 38.7024 36.84C38.0864 36.84 37.5824 37.048 37.1904 37.464C36.8064 37.88 36.6144 38.392 36.6144 39C36.6144 39.608 36.8064 40.12 37.1904 40.536ZM45.4398 42.12C44.7838 42.12 44.2518 41.9 43.8438 41.46C43.4358 41.012 43.2318 40.42 43.2318 39.684V36H44.2638V39.528C44.2638 40.032 44.3838 40.432 44.6238 40.728C44.8718 41.024 45.2038 41.172 45.6198 41.172C46.0998 41.172 46.4958 40.976 46.8078 40.584C47.1278 40.184 47.2878 39.648 47.2878 38.976V36H48.3198V42H47.2878V41.076C46.8958 41.772 46.2798 42.12 45.4398 42.12ZM50.265 42V36H51.297V36.924C51.705 36.228 52.341 35.88 53.205 35.88C53.885 35.88 54.433 36.1 54.849 36.54C55.265 36.98 55.473 37.568 55.473 38.304V42H54.453V38.46C54.453 37.956 54.325 37.56 54.069 37.272C53.813 36.976 53.469 36.828 53.037 36.828C52.541 36.828 52.125 37.024 51.789 37.416C51.461 37.808 51.297 38.344 51.297 39.024V42H50.265ZM59.5891 42.06C59.0371 42.06 58.5931 41.904 58.2571 41.592C57.9211 41.28 57.7531 40.824 57.7531 40.224V36.948H56.4811V36H57.7531V34.332H58.7851V36H60.5131V36.948H58.7851V40.092C58.7851 40.468 58.8651 40.732 59.0251 40.884C59.1851 41.036 59.4371 41.112 59.7811 41.112C60.0851 41.112 60.3291 41.072 60.5131 40.992V41.916C60.2251 42.012 59.9171 42.06 59.5891 42.06Z" fill="#434044"/>
</g>
<defs>
<filter id="filter0_d_114_597" x="-4" y="0" width="82" height="54" filterUnits="userSpaceOnUse" color-interpolation-filters="sRGB">
<feFlood flood-opacity="0" result="BackgroundImageFix"/>
<feColorMatrix in="SourceAlpha" type="matrix" values="0 0 0 0 0 0 0 0 0 0 0 0 0 0 0 0 0 0 127 0" result="hardAlpha"/>
<feOffset dy="4"/>
<feGaussianBlur stdDeviation="2"/>
<feComposite in2="hardAlpha" operator="out"/>
<feColorMatrix type="matrix" values="0 0 0 0 0 0 0 0 0 0 0 0 0 0 0 0 0 0 0.25 0"/>
<feBlend mode="normal" in2="BackgroundImageFix" result="effect1_dropShadow_114_597"/>
<feBlend mode="normal" in="SourceGraphic" in2="effect1_dropShadow_114_597" result="shape"/>
</filter>
</defs>
</svg>
