<svg width="74" height="46" viewBox="0 0 74 46" fill="none" xmlns="http://www.w3.org/2000/svg">
<path fill-rule="evenodd" clip-rule="evenodd" d="M37 3C32.0294 3 28 7.02944 28 12C28 16.9706 32.0294 21 37 21C41.9706 21 46 16.9706 46 12C46 7.02944 41.9706 3 37 3ZM26 12C26 5.92487 30.9249 1 37 1C43.0751 1 48 5.92487 48 12C48 18.0751 43.0751 23 37 23C30.9249 23 26 18.0751 26 12Z" fill="#434044"/>
<path fill-rule="evenodd" clip-rule="evenodd" d="M37 5C37.5523 5 38 5.44772 38 6V11.382L41.4472 13.1056C41.9412 13.3526 42.1414 13.9532 41.8944 14.4472C41.6474 14.9412 41.0468 15.1414 40.5528 14.8944L36.5528 12.8944C36.214 12.725 36 12.3788 36 12V6C36 5.44772 36.4477 5 37 5Z" fill="#434044"/>
<path d="M15.072 42L18.84 33.48H19.764L23.544 42H22.38L21.276 39.516H17.304L16.224 42H15.072ZM19.284 34.992L17.748 38.508H20.832L19.284 34.992ZM27.1441 42.12C26.2401 42.12 25.4881 41.82 24.8881 41.22C24.2961 40.62 24.0001 39.88 24.0001 39C24.0001 38.12 24.2961 37.38 24.8881 36.78C25.4881 36.18 26.2401 35.88 27.1441 35.88C27.7521 35.88 28.2961 36.024 28.7761 36.312C29.2641 36.6 29.6441 36.992 29.9161 37.488L29.0161 37.992C28.8401 37.64 28.5881 37.36 28.2601 37.152C27.9401 36.944 27.5681 36.84 27.1441 36.84C26.5281 36.84 26.0241 37.048 25.6321 37.464C25.2401 37.88 25.0441 38.392 25.0441 39C25.0441 39.608 25.2401 40.12 25.6321 40.536C26.0241 40.952 26.5281 41.16 27.1441 41.16C27.5681 41.16 27.9401 41.056 28.2601 40.848C28.5881 40.64 28.8401 40.36 29.0161 40.008L29.9161 40.512C29.6441 41.008 29.2641 41.4 28.7761 41.688C28.2961 41.976 27.7521 42.12 27.1441 42.12ZM33.5813 42.06C33.0293 42.06 32.5853 41.904 32.2493 41.592C31.9133 41.28 31.7453 40.824 31.7453 40.224V36.948H30.4733V36H31.7453V34.332H32.7773V36H34.5053V36.948H32.7773V40.092C32.7773 40.468 32.8573 40.732 33.0173 40.884C33.1773 41.036 33.4293 41.112 33.7733 41.112C34.0773 41.112 34.3213 41.072 34.5053 40.992V41.916C34.2173 42.012 33.9093 42.06 33.5813 42.06ZM36.8676 34.188C36.7316 34.324 36.5596 34.392 36.3516 34.392C36.1436 34.392 35.9676 34.324 35.8236 34.188C35.6796 34.044 35.6076 33.868 35.6076 33.66C35.6076 33.46 35.6796 33.288 35.8236 33.144C35.9676 33 36.1436 32.928 36.3516 32.928C36.5596 32.928 36.7316 33 36.8676 33.144C37.0036 33.288 37.0716 33.46 37.0716 33.66C37.0716 33.868 37.0036 34.044 36.8676 34.188ZM35.8236 42V36H36.8556V42H35.8236ZM40.6838 42L37.9118 36H39.0638L41.1158 40.548L43.1678 36H44.3198L41.5478 42H40.6838ZM46.4066 34.188C46.2706 34.324 46.0986 34.392 45.8906 34.392C45.6826 34.392 45.5066 34.324 45.3626 34.188C45.2186 34.044 45.1466 33.868 45.1466 33.66C45.1466 33.46 45.2186 33.288 45.3626 33.144C45.5066 33 45.6826 32.928 45.8906 32.928C46.0986 32.928 46.2706 33 46.4066 33.144C46.5426 33.288 46.6106 33.46 46.6106 33.66C46.6106 33.868 46.5426 34.044 46.4066 34.188ZM45.3626 42V36H46.3946V42H45.3626ZM50.6789 42.06C50.1269 42.06 49.6829 41.904 49.3469 41.592C49.0109 41.28 48.8429 40.824 48.8429 40.224V36.948H47.5709V36H48.8429V34.332H49.8749V36H51.6029V36.948H49.8749V40.092C49.8749 40.468 49.9549 40.732 50.1149 40.884C50.2749 41.036 50.5269 41.112 50.8709 41.112C51.1749 41.112 51.4189 41.072 51.6029 40.992V41.916C51.3149 42.012 51.0069 42.06 50.6789 42.06ZM54.5172 44.508H53.3652L54.6732 41.688L52.0452 36H53.1852L55.2492 40.56L57.3012 36H58.4532L54.5172 44.508Z" fill="#434044"/>
</svg>
