<svg width="74" height="46" viewBox="0 0 74 46" fill="none" xmlns="http://www.w3.org/2000/svg">
<path fill-rule="evenodd" clip-rule="evenodd" d="M36.3861 1.21065C36.7472 0.929784 37.2528 0.929784 37.6139 1.21065L46.6139 8.21065C46.8575 8.4001 47 8.69141 47 9V20C47 20.7957 46.6839 21.5587 46.1213 22.1213C45.5587 22.6839 44.7957 23 44 23H30C29.2043 23 28.4413 22.6839 27.8787 22.1213C27.3161 21.5587 27 20.7957 27 20V9C27 8.69141 27.1425 8.4001 27.3861 8.21065L36.3861 1.21065ZM29 9.48908V20C29 20.2652 29.1054 20.5196 29.2929 20.7071C29.4804 20.8946 29.7348 21 30 21H44C44.2652 21 44.5196 20.8946 44.7071 20.7071C44.8946 20.5196 45 20.2652 45 20V9.48908L37 3.26686L29 9.48908Z" fill="black"/>
<path fill-rule="evenodd" clip-rule="evenodd" d="M33 12C33 11.4477 33.4477 11 34 11H40C40.5523 11 41 11.4477 41 12V22C41 22.5523 40.5523 23 40 23C39.4477 23 39 22.5523 39 22V13H35V22C35 22.5523 34.5523 23 34 23C33.4477 23 33 22.5523 33 22V12Z" fill="black"/>
<path d="M21.044 42V33.48H22.448V37.008H26.66V33.48H28.064V42H26.66V38.34H22.448V42H21.044ZM34.832 41.22C34.232 41.82 33.488 42.12 32.6 42.12C31.712 42.12 30.964 41.82 30.356 41.22C29.756 40.612 29.456 39.872 29.456 39C29.456 38.128 29.756 37.392 30.356 36.792C30.964 36.184 31.712 35.88 32.6 35.88C33.488 35.88 34.232 36.184 34.832 36.792C35.44 37.392 35.744 38.128 35.744 39C35.744 39.872 35.44 40.612 34.832 41.22ZM32.6 40.896C33.12 40.896 33.548 40.716 33.884 40.356C34.228 39.988 34.4 39.536 34.4 39C34.4 38.464 34.228 38.016 33.884 37.656C33.548 37.288 33.12 37.104 32.6 37.104C32.072 37.104 31.636 37.288 31.292 37.656C30.956 38.016 30.788 38.464 30.788 39C30.788 39.536 30.956 39.988 31.292 40.356C31.636 40.716 32.072 40.896 32.6 40.896ZM44.7156 42V38.628C44.7156 38.14 44.6236 37.76 44.4396 37.488C44.2636 37.216 43.9996 37.08 43.6476 37.08C43.2236 37.08 42.8836 37.244 42.6276 37.572C42.3716 37.9 42.2356 38.36 42.2196 38.952V42H40.8996V38.628C40.8996 38.14 40.8076 37.76 40.6236 37.488C40.4476 37.216 40.1836 37.08 39.8316 37.08C39.3916 37.08 39.0396 37.252 38.7756 37.596C38.5196 37.94 38.3916 38.424 38.3916 39.048V42H37.0716V36H38.3916V36.816C38.7596 36.192 39.3276 35.88 40.0956 35.88C40.9996 35.88 41.6196 36.276 41.9556 37.068C42.1236 36.692 42.3796 36.4 42.7236 36.192C43.0756 35.984 43.4596 35.88 43.8756 35.88C44.5476 35.88 45.0756 36.108 45.4596 36.564C45.8436 37.02 46.0356 37.636 46.0356 38.412V42H44.7156ZM50.4359 42.12C49.5239 42.12 48.7719 41.828 48.1799 41.244C47.5959 40.66 47.3039 39.912 47.3039 39C47.3039 38.112 47.5999 37.372 48.1919 36.78C48.7839 36.18 49.5319 35.88 50.4359 35.88C51.2679 35.88 51.9559 36.144 52.4999 36.672C53.0519 37.2 53.3279 37.928 53.3279 38.856C53.3279 39.016 53.3239 39.16 53.3159 39.288H48.5999C48.6319 39.776 48.8199 40.172 49.1639 40.476C49.5079 40.772 49.9359 40.92 50.4479 40.92C51.2159 40.92 51.7879 40.616 52.1639 40.008L53.1719 40.728C52.5959 41.656 51.6839 42.12 50.4359 42.12ZM48.6599 38.328H51.9959C51.9239 37.912 51.7359 37.588 51.4319 37.356C51.1359 37.116 50.7879 36.996 50.3879 36.996C49.9719 36.996 49.5999 37.112 49.2719 37.344C48.9519 37.576 48.7479 37.904 48.6599 38.328Z" fill="black"/>
</svg>
