<svg width="74" height="46" viewBox="0 0 74 46" fill="none" xmlns="http://www.w3.org/2000/svg">
<g clip-path="url(#clip0_114_588)">
<path d="M29 8H33V4H29V8ZM35 20H39V16H35V20ZM29 20H33V16H29V20ZM29 14H33V10H29V14ZM35 14H39V10H35V14ZM41 4V8H45V4H41ZM35 8H39V4H35V8ZM41 14H45V10H41V14ZM41 20H45V16H41V20Z" fill="#434044"/>
</g>
<path d="M16.92 42.144C16.24 42.144 15.628 42 15.084 41.712C14.548 41.424 14.164 41.056 13.932 40.608L14.832 39.936C15.336 40.712 16.04 41.1 16.944 41.1C17.4 41.1 17.776 40.988 18.072 40.764C18.368 40.532 18.516 40.22 18.516 39.828C18.516 39.172 18.108 38.692 17.292 38.388L16.164 37.956C15.492 37.708 15 37.4 14.688 37.032C14.384 36.656 14.232 36.18 14.232 35.604C14.232 34.916 14.48 34.368 14.976 33.96C15.48 33.544 16.12 33.336 16.896 33.336C17.416 33.336 17.892 33.444 18.324 33.66C18.756 33.868 19.108 34.148 19.38 34.5L18.564 35.22C18.092 34.66 17.528 34.38 16.872 34.38C16.44 34.38 16.076 34.492 15.78 34.716C15.484 34.932 15.336 35.212 15.336 35.556C15.336 35.9 15.436 36.172 15.636 36.372C15.836 36.572 16.164 36.756 16.62 36.924L17.652 37.32C18.308 37.568 18.8 37.888 19.128 38.28C19.464 38.672 19.632 39.172 19.632 39.78C19.632 40.492 19.376 41.064 18.864 41.496C18.36 41.928 17.712 42.144 16.92 42.144ZM23.7565 42.12C22.8365 42.12 22.0885 41.824 21.5125 41.232C20.9365 40.64 20.6485 39.896 20.6485 39C20.6485 38.112 20.9405 37.372 21.5245 36.78C22.1085 36.18 22.8565 35.88 23.7685 35.88C24.5765 35.88 25.2525 36.152 25.7965 36.696C26.3485 37.232 26.6245 37.964 26.6245 38.892C26.6245 39.012 26.6205 39.116 26.6125 39.204H21.6925C21.7085 39.764 21.9085 40.232 22.2925 40.608C22.6845 40.984 23.1765 41.172 23.7685 41.172C24.6085 41.172 25.2325 40.824 25.6405 40.128L26.4565 40.692C25.8725 41.644 24.9725 42.12 23.7565 42.12ZM21.7645 38.364H25.5685C25.4885 37.884 25.2765 37.504 24.9325 37.224C24.5965 36.936 24.1965 36.792 23.7325 36.792C23.2605 36.792 22.8365 36.936 22.4605 37.224C22.0925 37.504 21.8605 37.884 21.7645 38.364ZM28.0892 42V36H29.1212V37.164C29.2332 36.796 29.4492 36.5 29.7692 36.276C30.0972 36.052 30.4412 35.94 30.8012 35.94C30.9772 35.94 31.1332 35.956 31.2692 35.988V37.056C31.1252 36.992 30.9372 36.96 30.7052 36.96C30.2892 36.96 29.9212 37.14 29.6012 37.5C29.2812 37.86 29.1212 38.368 29.1212 39.024V42H28.0892ZM34.3557 42L31.5837 36H32.7357L34.7877 40.548L36.8397 36H37.9917L35.2197 42H34.3557ZM40.0785 34.188C39.9425 34.324 39.7705 34.392 39.5625 34.392C39.3545 34.392 39.1785 34.324 39.0345 34.188C38.8905 34.044 38.8185 33.868 38.8185 33.66C38.8185 33.46 38.8905 33.288 39.0345 33.144C39.1785 33 39.3545 32.928 39.5625 32.928C39.7705 32.928 39.9425 33 40.0785 33.144C40.2145 33.288 40.2825 33.46 40.2825 33.66C40.2825 33.868 40.2145 34.044 40.0785 34.188ZM39.0345 42V36H40.0665V42H39.0345ZM44.6988 42.12C43.7948 42.12 43.0428 41.82 42.4428 41.22C41.8508 40.62 41.5548 39.88 41.5548 39C41.5548 38.12 41.8508 37.38 42.4428 36.78C43.0428 36.18 43.7948 35.88 44.6988 35.88C45.3068 35.88 45.8508 36.024 46.3308 36.312C46.8188 36.6 47.1988 36.992 47.4708 37.488L46.5708 37.992C46.3948 37.64 46.1428 37.36 45.8148 37.152C45.4948 36.944 45.1228 36.84 44.6988 36.84C44.0828 36.84 43.5788 37.048 43.1868 37.464C42.7948 37.88 42.5988 38.392 42.5988 39C42.5988 39.608 42.7948 40.12 43.1868 40.536C43.5788 40.952 44.0828 41.16 44.6988 41.16C45.1228 41.16 45.4948 41.056 45.8148 40.848C46.1428 40.64 46.3948 40.36 46.5708 40.008L47.4708 40.512C47.1988 41.008 46.8188 41.4 46.3308 41.688C45.8508 41.976 45.3068 42.12 44.6988 42.12ZM51.4479 42.12C50.5279 42.12 49.7799 41.824 49.2039 41.232C48.6279 40.64 48.3399 39.896 48.3399 39C48.3399 38.112 48.6319 37.372 49.2159 36.78C49.7999 36.18 50.5479 35.88 51.4599 35.88C52.2679 35.88 52.9439 36.152 53.4879 36.696C54.0399 37.232 54.3159 37.964 54.3159 38.892C54.3159 39.012 54.3119 39.116 54.3039 39.204H49.3839C49.3999 39.764 49.5999 40.232 49.9839 40.608C50.3759 40.984 50.8679 41.172 51.4599 41.172C52.2999 41.172 52.9239 40.824 53.3319 40.128L54.1479 40.692C53.5639 41.644 52.6639 42.12 51.4479 42.12ZM49.4559 38.364H53.2599C53.1799 37.884 52.9679 37.504 52.6239 37.224C52.2879 36.936 51.8879 36.792 51.4239 36.792C50.9519 36.792 50.5279 36.936 50.1519 37.224C49.7839 37.504 49.5519 37.884 49.4559 38.364ZM57.5926 42.12C57.0406 42.12 56.5566 42.004 56.1406 41.772C55.7246 41.532 55.4246 41.184 55.2406 40.728L56.0806 40.26C56.1926 40.556 56.3886 40.788 56.6686 40.956C56.9486 41.124 57.2606 41.208 57.6046 41.208C57.9006 41.208 58.1486 41.136 58.3486 40.992C58.5486 40.848 58.6486 40.652 58.6486 40.404C58.6486 40.188 58.5686 40.008 58.4086 39.864C58.2566 39.72 57.9886 39.588 57.6046 39.468L57.0046 39.276C56.0046 38.988 55.5046 38.404 55.5046 37.524C55.5046 37.028 55.7006 36.632 56.0926 36.336C56.4926 36.032 56.9846 35.88 57.5686 35.88C58.4806 35.88 59.1406 36.228 59.5486 36.924L58.7806 37.452C58.4526 36.996 58.0366 36.768 57.5326 36.768C57.2606 36.768 57.0246 36.836 56.8246 36.972C56.6326 37.1 56.5366 37.272 56.5366 37.488C56.5366 37.688 56.5966 37.86 56.7166 38.004C56.8446 38.14 57.0686 38.256 57.3886 38.352L58.0486 38.556C59.1366 38.892 59.6806 39.48 59.6806 40.32C59.6806 40.88 59.4846 41.32 59.0926 41.64C58.7086 41.96 58.2086 42.12 57.5926 42.12Z" fill="#434044"/>
<defs>
<clipPath id="clip0_114_588">
<rect width="24" height="24" fill="white" transform="translate(25)"/>
</clipPath>
</defs>
</svg>
