<svg width="32" height="32" viewBox="0 0 32 32" fill="none" xmlns="http://www.w3.org/2000/svg">
<path d="M16 5.8335C17.2819 5.8335 18.5112 6.34272 19.4177 7.24915C20.3241 8.15557 20.8333 9.38495 20.8333 10.6668C20.8333 11.9487 20.3241 13.1781 19.4177 14.0845C18.5112 14.9909 17.2819 15.5002 16 15.5002C14.7181 15.5002 13.4887 14.9909 12.5823 14.0845C11.6759 13.1781 11.1666 11.9487 11.1666 10.6668C11.1666 9.38495 11.6759 8.15557 12.5823 7.24915C13.4887 6.34272 14.7181 5.8335 16 5.8335ZM23.3197 20.6757C25.1964 21.614 26.1666 22.8181 26.1666 24.0002V26.1668H5.83331V24.0002C5.83331 22.8181 6.80358 21.614 8.68025 20.6757C10.5271 19.7523 13.114 19.1668 16 19.1668C18.8859 19.1668 21.4728 19.7523 23.3197 20.6757Z" stroke="black"/>
</svg>
