<svg width="32" height="32" viewBox="0 0 32 32" fill="none" xmlns="http://www.w3.org/2000/svg">
<path d="M25.5 4H6.5C5.57255 4.00264 4.68385 4.37223 4.02804 5.02804C3.37223 5.68385 3.00264 6.57255 3 7.5V19.5C3.00264 20.4274 3.37223 21.3162 4.02804 21.972C4.68385 22.6278 5.57255 22.9974 6.5 23H9V28L14.8575 23.1162C14.9474 23.0411 15.0609 23 15.1781 23H25.5C26.4274 22.9974 27.3162 22.6278 27.972 21.972C28.6278 21.3162 28.9974 20.4274 29 19.5V7.5C28.9974 6.57255 28.6278 5.68385 27.972 5.02804C27.3162 4.37223 26.4274 4.00264 25.5 4V4Z" stroke="black" stroke-linejoin="round"/>
<path d="M11.75 13.5C11.75 14.4665 10.9665 15.25 10 15.25C9.0335 15.25 8.25 14.4665 8.25 13.5C8.25 12.5335 9.0335 11.75 10 11.75C10.9665 11.75 11.75 12.5335 11.75 13.5Z" fill="black" stroke="white" stroke-width="0.5"/>
<path d="M17.75 13.5C17.75 14.4665 16.9665 15.25 16 15.25C15.0335 15.25 14.25 14.4665 14.25 13.5C14.25 12.5335 15.0335 11.75 16 11.75C16.9665 11.75 17.75 12.5335 17.75 13.5Z" fill="black" stroke="white" stroke-width="0.5"/>
<path d="M23.75 13.5C23.75 14.4665 22.9665 15.25 22 15.25C21.0335 15.25 20.25 14.4665 20.25 13.5C20.25 12.5335 21.0335 11.75 22 11.75C22.9665 11.75 23.75 12.5335 23.75 13.5Z" fill="black" stroke="white" stroke-width="0.5"/>
</svg>
