<svg width="32" height="32" viewBox="0 0 32 32" fill="none" xmlns="http://www.w3.org/2000/svg">
<path d="M26.6667 14.6667C26.6667 11.8377 25.5429 9.12458 23.5425 7.12419C21.5421 5.12381 18.829 4 16 4C13.1711 4 10.458 5.12381 8.45757 7.12419C6.45718 9.12458 5.33337 11.8377 5.33337 14.6667" stroke="black" stroke-linecap="round" stroke-linejoin="round"/>
<path d="M2.66669 20.5842V18.0828C2.66678 17.4882 2.86563 16.9106 3.23163 16.4419C3.59763 15.9733 4.10978 15.6404 4.68669 15.4962L7.00669 14.9148C7.12458 14.8855 7.2476 14.8833 7.36643 14.9086C7.48527 14.9339 7.59678 14.9859 7.69252 15.0607C7.78826 15.1355 7.8657 15.2311 7.91898 15.3403C7.97226 15.4495 7.99998 15.5693 8.00002 15.6908V22.9748C8.00023 23.0966 7.97265 23.2168 7.91938 23.3262C7.86611 23.4357 7.78856 23.5316 7.69264 23.6065C7.59671 23.6815 7.48494 23.7336 7.36583 23.7588C7.24673 23.7841 7.12344 23.7818 7.00535 23.7522L4.68535 23.1722C4.1087 23.0277 3.59684 22.6947 3.2311 22.226C2.86536 21.7574 2.6667 21.18 2.66669 20.5855V20.5842Z" stroke="black"/>
<path d="M29.3333 20.5842V18.0828C29.3332 17.4882 29.1344 16.9106 28.7684 16.4419C28.4024 15.9733 27.8902 15.6404 27.3133 15.4962L24.9933 14.9148C24.8754 14.8855 24.7524 14.8833 24.6336 14.9086C24.5148 14.9339 24.4032 14.9859 24.3075 15.0607C24.2118 15.1355 24.1343 15.2311 24.081 15.3403C24.0278 15.4495 24 15.5693 24 15.6908V22.9748C23.9998 23.0964 24.0274 23.2165 24.0806 23.3258C24.1338 23.4352 24.2112 23.531 24.307 23.6059C24.4027 23.6808 24.5143 23.733 24.6333 23.7583C24.7522 23.7836 24.8753 23.7815 24.9933 23.7522L27.3133 23.1722C27.8902 23.028 28.4024 22.6951 28.7684 22.2264C29.1344 21.7577 29.3332 21.1801 29.3333 20.5855V20.5842Z" stroke="black"/>
<path d="M26.6667 24V24.6667C26.6667 25.3739 26.3858 26.0522 25.8857 26.5523C25.3856 27.0524 24.7073 27.3333 24 27.3333H19.3334" stroke="black"/>
<path d="M18 29.3335H14C13.4696 29.3335 12.9609 29.1228 12.5858 28.7477C12.2107 28.3726 12 27.8639 12 27.3335C12 26.8031 12.2107 26.2944 12.5858 25.9193C12.9609 25.5442 13.4696 25.3335 14 25.3335H18C18.5304 25.3335 19.0391 25.5442 19.4142 25.9193C19.7893 26.2944 20 26.8031 20 27.3335C20 27.8639 19.7893 28.3726 19.4142 28.7477C19.0391 29.1228 18.5304 29.3335 18 29.3335Z" stroke="black"/>
</svg>
