<svg width="32" height="32" viewBox="0 0 32 32" fill="none" xmlns="http://www.w3.org/2000/svg">
<path d="M26.814 21.2798L26.8145 21.2804C26.8543 21.3284 26.9042 21.389 26.9554 21.4513C27.0127 21.521 27.0717 21.5927 27.1201 21.651C27.327 21.9011 27.458 22.2052 27.4974 22.5273C27.5368 22.8496 27.4831 23.1764 27.3425 23.4691L27.3421 23.4699C27.042 24.0972 26.4062 24.4981 25.6563 24.4981H6.35065C5.59495 24.4981 4.95509 24.0955 4.65673 23.4669L4.65604 23.4654C4.51604 23.1729 4.46278 22.8463 4.50257 22.5244C4.54235 22.2026 4.67352 21.8988 4.88054 21.6492L4.88056 21.6492L4.88347 21.6456C4.97286 21.5357 5.0608 21.4297 5.14901 21.3233C5.1614 21.3084 5.17379 21.2935 5.1862 21.2785L5.18631 21.2784L5.20263 21.2586C5.8815 20.4392 6.48134 19.7152 6.89087 18.5856C7.29984 17.4574 7.50815 15.961 7.50815 13.5844C7.50815 11.5123 7.92309 9.84529 8.7307 8.53291C9.53551 7.22506 10.7546 6.22965 12.4347 5.53798L12.4623 5.52664L12.4883 5.51211C12.5559 5.47431 12.6168 5.42548 12.6683 5.36764L12.7422 5.28468L12.7741 5.17821C13.2653 3.53506 14.582 2.5 16 2.5C17.418 2.5 18.7353 3.53502 19.2266 5.17994L19.2569 5.28159L19.3259 5.36215C19.3789 5.42406 19.4426 5.47605 19.5138 5.51569L19.5395 5.52997L19.5667 5.54114C21.0089 6.13451 22.0776 6.92577 22.8629 7.9525L22.8631 7.95286C23.9284 9.34306 24.4925 11.2265 24.4925 13.5863C24.4925 15.962 24.7012 17.458 25.1103 18.5861C25.5193 19.7139 26.1179 20.4379 26.7948 21.2566L26.814 21.2798Z" stroke="black"/>
<path d="M16 30C16.9031 29.9993 17.7892 29.7541 18.5643 29.2905C19.3394 28.827 19.9746 28.1622 20.4025 27.3669C20.4226 27.3288 20.4326 27.2861 20.4314 27.243C20.4302 27.1999 20.4178 27.1578 20.3956 27.1209C20.3733 27.084 20.3418 27.0534 20.3043 27.0323C20.2667 27.0111 20.2243 27 20.1812 27H11.82C11.7768 26.9998 11.7343 27.0109 11.6967 27.032C11.659 27.0532 11.6275 27.0837 11.6052 27.1206C11.5828 27.1576 11.5704 27.1997 11.5692 27.2428C11.568 27.286 11.5779 27.3287 11.5981 27.3669C12.0259 28.1621 12.661 28.8268 13.436 29.2904C14.2109 29.7539 15.0969 29.9992 16 30Z" fill="black"/>
</svg>
