<svg width="32" height="32" viewBox="0 0 32 32" fill="none" xmlns="http://www.w3.org/2000/svg">
<path d="M12 8.83317H11.5V9.33317V14.6665V15.1665H12H14.6666H15.1666V14.6665V9.33317V8.83317H14.6666H12ZM16 8.83317H15.5V9.33317V14.6665V15.1665H16H18.6666H19.1666V14.6665V9.33317V8.83317H18.6666H16ZM20 8.83317H19.5V9.33317V14.6665V15.1665H20H22.6666H23.1666V14.6665V9.33317V8.83317H22.6666H20ZM13.5404 3.1665H24C25.1905 3.1665 26.1666 4.14265 26.1666 5.33317V26.6665C26.1666 27.857 25.1905 28.8332 24 28.8332H7.99998C6.80946 28.8332 5.83331 27.857 5.83331 26.6665V10.8736L13.5404 3.1665Z" stroke="black"/>
</svg>
