<svg width="18" height="18" viewBox="0 0 18 18" fill="none" xmlns="http://www.w3.org/2000/svg">
<path d="M6.18337 12.2498H15.0834V12.4165H5.83337C5.33092 12.4165 4.91671 12.0023 4.91671 11.4998C4.91671 11.3368 4.9586 11.1903 5.02622 11.0719L5.0263 11.072L5.03192 11.0618L6.15692 9.02012L6.34226 8.68376L6.17768 8.33676L3.17768 2.01176L2.9744 1.58317H2.50004H1.58337V1.4165H3.08217L3.66294 2.65219L3.8655 3.08317H4.34171H16.6667C16.6873 3.08317 16.7075 3.09091 16.7249 3.10829C16.7423 3.12567 16.75 3.14592 16.75 3.1665C16.75 3.17924 16.7485 3.18977 16.7468 3.19661C16.7465 3.19771 16.7463 3.1986 16.7461 3.19929L16.7433 3.20425L13.76 8.61258L13.7591 8.61421C13.6052 8.89484 13.3049 9.08317 12.9584 9.08317H6.75004H6.30742L6.09348 9.47065L5.34347 10.829L5.29617 10.9147L5.27243 11.0096L5.24743 11.1096L5.22504 11.1992V11.2915C5.22504 11.8224 5.6525 12.2498 6.18337 12.2498ZM4.92504 15.6665C4.92504 15.1591 5.33581 14.7498 5.83337 14.7498C6.33583 14.7498 6.75004 15.1641 6.75004 15.6665C6.75004 16.169 6.33583 16.5832 5.83337 16.5832C5.33581 16.5832 4.92504 16.1739 4.92504 15.6665ZM13.2584 15.6665C13.2584 15.1591 13.6691 14.7498 14.1667 14.7498C14.6692 14.7498 15.0834 15.1641 15.0834 15.6665C15.0834 16.169 14.6692 16.5832 14.1667 16.5832C13.6691 16.5832 13.2584 16.1739 13.2584 15.6665Z" stroke="black" stroke-width="1.5"/>
</svg>
