<svg width="28" height="22" viewBox="0 0 28 22" fill="none" xmlns="http://www.w3.org/2000/svg">
<g filter="url(#filter0_d_307_1216)">
<path fill-rule="evenodd" clip-rule="evenodd" d="M4 6.25947C4.26123 5.5598 4.75191 5.01592 5.24058 4.47425L5.24062 4.4742C5.29738 4.41129 5.3541 4.34842 5.41044 4.28533C6.03898 3.5817 6.76037 2.97487 7.53966 2.43563C7.56773 2.41609 7.59435 2.39442 7.62578 2.36882L7.62579 2.36882C7.6405 2.35684 7.65626 2.34401 7.67372 2.33013C7.55488 2.21458 7.43645 2.10035 7.31864 1.98672C7.05635 1.73375 6.79714 1.48374 6.54338 1.22861C6.27527 0.958732 6.26588 0.55315 6.50165 0.26791C6.7249 -0.0029901 7.12863 -0.0818534 7.43638 0.0932845C7.51932 0.140398 7.59391 0.206458 7.66224 0.273543C10.2649 2.82684 12.8667 5.381 15.4685 7.93516L18.0705 10.4894L18.5702 10.9802L18.5708 10.9808C19.1538 11.5535 19.7365 12.1259 20.3218 12.6966C20.5356 12.905 20.6483 13.1431 20.5753 13.4391C20.4365 13.9998 19.7543 14.1893 19.3291 13.7802C18.7622 13.2348 18.203 12.6812 17.6459 12.1266C17.5609 12.0416 17.4899 12.0272 17.3747 12.0626C14.1741 13.0545 11.1357 12.6679 8.26001 10.9995C6.63832 10.0587 5.3202 8.79385 4.26394 7.26575C4.18551 7.1529 4.13118 7.02388 4.07681 6.89476C4.05198 6.8358 4.02715 6.77681 4 6.71934V6.25947ZM10.1795 4.8005C9.50927 6.09611 9.64958 8.08613 11.0501 9.43551C12.4303 10.7659 14.4354 10.8807 15.7149 10.2349L15.4849 10.0092C15.1921 9.72158 14.9016 9.4363 14.6075 9.15488C14.5757 9.12415 14.5006 9.12159 14.4489 9.12876C14.0645 9.18458 13.6843 9.17229 13.3077 9.07346C11.9509 8.71806 11.1294 7.49107 11.3015 6.08075C11.3094 6.01674 11.3151 5.92558 11.2786 5.8882C10.9929 5.5971 10.7012 5.31151 10.4073 5.0237L10.4073 5.02367L10.1795 4.8005ZM20.2945 10.6405C20.2479 10.5921 20.2015 10.5431 20.1549 10.494L20.1549 10.494C20.0566 10.3903 19.9576 10.286 19.8553 10.1852L19.7906 10.1213L19.7906 10.1213C19.1836 9.52245 18.5764 8.92336 17.9629 8.33144C17.8586 8.23055 17.8435 8.15476 17.8977 8.02059C18.9863 5.30749 16.9984 2.39467 14.0341 2.35677C13.4687 2.34961 12.9241 2.46124 12.3968 2.66147C12.3347 2.68503 12.222 2.68145 12.1814 2.64201C11.6967 2.17683 11.2183 1.70508 10.74 1.23347L10.74 1.23344L10.5226 1.01917C10.5156 1.01229 10.5113 1.00279 10.5024 0.983408C10.4961 0.96962 10.4876 0.950832 10.4741 0.924433C10.6607 0.881214 10.8451 0.835171 11.0284 0.789405L11.0284 0.789403C11.4293 0.6893 11.8249 0.590522 12.2262 0.525508C13.9277 0.251023 15.6094 0.353955 17.2556 0.87476C19.6415 1.62959 21.5787 3.01636 23.1389 4.927C23.3543 5.19073 23.5609 5.46266 23.7502 5.74482C24.0757 6.22927 24.0872 6.73522 23.7596 7.21864C22.8567 8.55266 21.7269 9.67109 20.3884 10.5872C20.3765 10.5956 20.3635 10.6026 20.3448 10.6127C20.3315 10.6199 20.3153 10.6286 20.2945 10.6405ZM16.0291 4.71907C15.3484 3.97191 14.4841 3.70921 13.4648 3.86284L16.6655 7.00661C16.8209 6.14168 16.6222 5.37046 16.0291 4.71907Z" fill="black"/>
</g>
<defs>
<filter id="filter0_d_307_1216" x="0" y="0" width="28" height="22" filterUnits="userSpaceOnUse" color-interpolation-filters="sRGB">
<feFlood flood-opacity="0" result="BackgroundImageFix"/>
<feColorMatrix in="SourceAlpha" type="matrix" values="0 0 0 0 0 0 0 0 0 0 0 0 0 0 0 0 0 0 127 0" result="hardAlpha"/>
<feOffset dy="4"/>
<feGaussianBlur stdDeviation="2"/>
<feComposite in2="hardAlpha" operator="out"/>
<feColorMatrix type="matrix" values="0 0 0 0 0 0 0 0 0 0 0 0 0 0 0 0 0 0 0.25 0"/>
<feBlend mode="normal" in2="BackgroundImageFix" result="effect1_dropShadow_307_1216"/>
<feBlend mode="normal" in="SourceGraphic" in2="effect1_dropShadow_307_1216" result="shape"/>
</filter>
</defs>
</svg>
