<svg width="20" height="12" viewBox="0 0 20 12" fill="none" xmlns="http://www.w3.org/2000/svg">
<path fill-rule="evenodd" clip-rule="evenodd" d="M16.1798 1.97108C17.5971 2.92435 18.7789 4.12533 19.8089 5.48493C20.0628 5.82019 20.0634 6.18326 19.8104 6.51698C18.622 8.08516 17.2339 9.43343 15.5366 10.4377C14.1336 11.2684 12.63 11.7957 11.0032 11.9507C8.63559 12.1763 6.44833 11.6217 4.41385 10.4083C2.73189 9.40562 1.35752 8.06044 0.180866 6.5005C0.127913 6.43051 0.0903648 6.34912 0.0528568 6.26782C0.0357181 6.23067 0.0185877 6.19353 0 6.15751V5.84234C0.0653876 5.74598 0.128653 5.6479 0.19191 5.54982C0.329822 5.33601 0.467691 5.12226 0.627411 4.92667C1.88479 3.38579 3.3542 2.09932 5.13067 1.19292C6.34308 0.573892 7.62141 0.179917 8.9779 0.0501373C11.6137 -0.201697 13.9972 0.503852 16.1798 1.97108ZM5.79691 6.1261C5.83472 8.43381 7.7803 10.2765 10.1326 10.2322L10.1331 10.2317C12.4072 10.1889 14.2424 8.22215 14.201 5.87169C14.1602 3.56243 12.2161 1.72286 9.86333 1.76766C7.58104 1.81143 5.75808 3.76534 5.79691 6.1261ZM7.73687 6.01068C7.73636 4.75357 8.76025 3.71894 10.0064 3.71739C11.2349 3.71561 12.2595 4.7316 12.2636 5.95506C12.2677 7.24205 11.2495 8.2808 9.98544 8.27977C8.75463 8.27874 7.73687 7.25183 7.73687 6.01068ZM10.0059 3.71739H10.0064H10.0059Z" fill="black"/>
</svg>
