<svg width="18" height="18" viewBox="0 0 18 18" fill="none" xmlns="http://www.w3.org/2000/svg">
<g clip-path="url(#clip0_117_2547)">
<path d="M6.75 2.25L5.3775 3.75H3C2.175 3.75 1.5 4.425 1.5 5.25V14.25C1.5 15.075 2.175 15.75 3 15.75H15C15.825 15.75 16.5 15.075 16.5 14.25V5.25C16.5 4.425 15.825 3.75 15 3.75H12.6225L11.25 2.25H6.75ZM9 13.5C6.93 13.5 5.25 11.82 5.25 9.75C5.25 7.68 6.93 6 9 6C11.07 6 12.75 7.68 12.75 9.75C12.75 11.82 11.07 13.5 9 13.5Z" stroke="black"/>
<path d="M9 12L9.625 10.625L11 10L9.625 9.375L9 8L8.375 9.375L7 10L8.375 10.625L9 12Z" fill="black"/>
</g>
<defs>
<clipPath id="clip0_117_2547">
<rect width="18" height="18" fill="white"/>
</clipPath>
</defs>
</svg>
