<svg width="18" height="18" viewBox="0 0 18 18" fill="none" xmlns="http://www.w3.org/2000/svg">
<g clip-path="url(#clip0_117_2540)">
<path d="M9 10.5C10.245 10.5 11.2425 9.495 11.2425 8.25L11.25 3.75C11.25 2.505 10.245 1.5 9 1.5C7.755 1.5 6.75 2.505 6.75 3.75V8.25C6.75 9.495 7.755 10.5 9 10.5ZM8.1 3.675C8.1 3.18 8.505 2.775 9 2.775C9.495 2.775 9.9 3.18 9.9 3.675L9.8925 8.325C9.8925 8.82 9.495 9.225 9 9.225C8.505 9.225 8.1 8.82 8.1 8.325V3.675ZM12.975 8.25C12.975 10.5 11.07 12.075 9 12.075C6.93 12.075 5.025 10.5 5.025 8.25H3.75C3.75 10.8075 5.79 12.9225 8.25 13.29V15.75H9.75V13.29C12.21 12.93 14.25 10.815 14.25 8.25H12.975Z" fill="black"/>
</g>
<defs>
<clipPath id="clip0_117_2540">
<rect width="18" height="18" fill="white"/>
</clipPath>
</defs>
</svg>
