<svg width="18" height="18" viewBox="0 0 18 18" fill="none" xmlns="http://www.w3.org/2000/svg">
<path d="M15.7502 15.75L12.4929 12.4927M12.4929 12.4927C13.0501 11.9356 13.492 11.2741 13.7936 10.5461C14.0951 9.81816 14.2503 9.03792 14.2503 8.24997C14.2503 7.46202 14.0951 6.68178 13.7936 5.95381C13.492 5.22584 13.0501 4.56439 12.4929 4.00722C11.9357 3.45006 11.2743 3.00809 10.5463 2.70655C9.81834 2.40502 9.03811 2.24982 8.25015 2.24982C7.4622 2.24982 6.68197 2.40502 5.95399 2.70655C5.22602 3.00809 4.56457 3.45006 4.0074 4.00722C2.88216 5.13247 2.25 6.65863 2.25 8.24997C2.25 9.84131 2.88216 11.3675 4.0074 12.4927C5.13265 13.618 6.65881 14.2501 8.25015 14.2501C9.84149 14.2501 11.3677 13.618 12.4929 12.4927Z" stroke="black" stroke-width="1.5" stroke-linecap="round" stroke-linejoin="round"/>
</svg>
